/* XPM */
static char *c8354108402c41b7f4615e532ea6629a[] = {
/* columns rows colors chars-per-pixel */
"32 32 105 2 ",
"   c #086696",
".  c #156D9A",
"X  c #166F9C",
"o  c #17709D",
"O  c #22749E",
"+  c #2477A1",
"@  c #2577A1",
"#  c #2678A2",
"$  c #2779A3",
"%  c #2F7BA2",
"&  c #3380A7",
"*  c #3C83A7",
"=  c #3582A9",
"-  c #3683AA",
";  c #3E85A9",
":  c #4187AB",
">  c #4288AC",
",  c #498AAB",
"<  c #5691AF",
"1  c #468CB0",
"2  c #5192B3",
"3  c #5596B7",
"4  c #5B96B4",
"5  c #5F99B7",
"6  c #6398B3",
"7  c #609AB8",
"8  c #629DBB",
"9  c #659FBD",
"0  c #6A9FBA",
"q  c #709FB7",
"w  c #6DA2BD",
"e  c #74A9C4",
"r  c #7AA9C1",
"t  c #7CABC3",
"y  c #7EADC5",
"u  c #8AADBF",
"i  c #82ABC0",
"p  c #83ACC1",
"a  c #84B3CB",
"s  c #8AB3C8",
"d  c #8FB8CD",
"f  c #97B4C3",
"g  c #94B7C9",
"h  c #9EBCCB",
"j  c #98BCCE",
"k  c #93BCD1",
"l  c #9ABED0",
"z  c #A4BCC8",
"x  c #ABC3CF",
"c  c #B1C3CC",
"v  c #A7C4D3",
"b  c #A0C3D5",
"n  c #AAC7D6",
"m  c #A2C6D8",
"M  c #ADCAD9",
"N  c #B6C8D1",
"B  c #B0C8D4",
"V  c #BECAD0",
"C  c #B5CDD9",
"Z  c #B7CFDB",
"A  c #B2CFDE",
"S  c #BDCFD8",
"D  c #C3CFD5",
"F  c #C5D1D7",
"G  c #CBD1D4",
"H  c #CDD3D6",
"J  c #C4D5DE",
"K  c #D0D6D9",
"L  c #D8D8D8",
"P  c gray85",
"I  c #DADADA",
"U  c gray86",
"Y  c gainsboro",
"T  c #DDDDDD",
"R  c gray87",
"E  c #DFDFDF",
"W  c #C1D9E5",
"Q  c #C9DAE3",
"!  c #D2DEE4",
"~  c #D1E2EB",
"^  c #D8E4EA",
"/  c #E2E2E2",
"(  c gray90",
")  c #E1E6E9",
"_  c #E2E7EA",
"`  c #E4E9EC",
"'  c gray91",
"]  c #E9E9E9",
"[  c #ECECEC",
"{  c #EEEEEE",
"}  c #EFEFEF",
"|  c #E0ECF2",
" . c gray94",
".. c #F1F1F1",
"X. c #F3F3F3",
"o. c #F6F6F6",
"O. c #F0F5F8",
"+. c #F8F8F8",
"@. c gray98",
"#. c #FBFBFB",
"$. c gray99",
"%. c #FDFDFD",
"&. c #FEFEFE",
"*. c gray100",
"=. c None",
/* pixels */
"=.=.=.=.                                                  =.=.=.",
"=.=.                                                          =.",
"=.                            . r X                             ",
"=.                          r _ .._ t                           ",
"                        > ! } } } } } ! >                       ",
"                    + Z } } } } } } } } } Z +                   ",
"                . s } } } } } _ ^ _ } } } _ M                   ",
"              w _ } } } } ..l o a o l  .n + a     &             ",
"          > J } } } } } Z =     a     a     a + v } J :         ",
"        p ....} } } ..5       $ W $   a   $ Q _ } } } } d       ",
"        z L ] } } } } ! 5 o e e   9 e m t _ } } } } ..*.W       ",
"        z L L R ] } } } } ` 2       2 ` } } } ....#.*.*.W       ",
"        z L L L L / } } } } } j + j } } } } ..X.*.*.*.*.W       ",
"        6 G L L L L L ( } } } } } } } } } X.*.*.*.*.*.*.W       ",
"          . u L L L L L R ] } ..} } } X.*.*.*.*.*.*.*.*.W       ",
"          1 a 0 F L L L L L R ] } ..#.*.*.*.*.*.W A *.*.W       ",
"        r 9     X g R L L L L L ] *.*.*.*.*.O.9   a *.*.W       ",
"        z K 4 o k a 8 q G L L L / *.*.*.O.a 3     a *.*.W       ",
"        z L L B $   1   O f L L / *.*.A $   1     a *.*.W       ",
"        z L L q     1       * c / ~ 1       1     a *.*.W       ",
"        z L L q o k k 9         ;         9 k k o a *.*.W       ",
"        z L L S k $   = a 1           1 a =   $ k ~ *.*.W       ",
"        z L L L x $       3 a $   $ a 3       $ W *.*.*.W       ",
"        z L L L L L p o       e a e       o k *.*.*.*.*.W       ",
"        . u L L L L L H 4       a       9 O.*.*.*.*.*.m o       ",
"            % z L L L L L N :   a   1 ~ *.*.*.*.*.W =           ",
"                , V L L L L L h b A *.*.*.*.*.| 3               ",
"                  . q G L L L L / *.*.*.*.O.a o                 ",
"                      O u L L L / *.*.*.m $                     ",
"=.                        * z L / *.W 1                         ",
"=.                            < F 9                             ",
"=.=.                                                          =."
};
