/* XPM */
static char *_a569f448d7e4345c14f2bb274ed6f1e[] = {
/* columns rows colors chars-per-pixel */
"64 64 123 2 ",
"   c #086696",
".  c #156D9A",
"X  c #166F9C",
"o  c #17709D",
"O  c #22749E",
"+  c #2577A1",
"@  c #2779A3",
"#  c #2F7BA2",
"$  c #3380A7",
"%  c #3C83A7",
"&  c #3582A9",
"*  c #3683AA",
"=  c #4187AB",
"-  c #4288AC",
";  c #438AAE",
":  c #448AAE",
">  c #458BAF",
",  c #498AAB",
"<  c #5691AF",
"1  c #468CB0",
"2  c #5091B2",
"3  c #5393B4",
"4  c #5495B6",
"5  c #5596B7",
"6  c #5F99B7",
"7  c #6398B3",
"8  c #659AB5",
"9  c #609BB9",
"0  c #639DBB",
"q  c #659FBD",
"w  c #709FB7",
"e  c #6DA2BD",
"r  c #73A2BA",
"t  c #7DA6BB",
"y  c #72A7C2",
"u  c #74A9C4",
"i  c #7AA9C1",
"p  c #7CABC3",
"a  c #8AADBF",
"s  c #80AFC7",
"d  c #81B0C8",
"f  c #82B1C9",
"g  c #84B3CB",
"h  c #8AB3C8",
"j  c #8FB8CD",
"k  c #97B4C3",
"l  c #94B7C9",
"z  c #96B9CB",
"x  c #98BCCE",
"c  c #93BCD1",
"v  c #A4BCC8",
"b  c #9CC0D2",
"n  c #9DC1D3",
"m  c #B1C3CC",
"M  c #A7C4D3",
"N  c #AEC5D1",
"B  c #A8C5D4",
"V  c #A2C6D8",
"C  c #ACC9D8",
"Z  c #BECAD0",
"A  c #B5CDD9",
"S  c #B0CDDC",
"D  c #B2CFDE",
"F  c #B9D1DD",
"G  c #BAD2DE",
"H  c #BFD7E3",
"J  c #C5D1D7",
"K  c #CBD1D4",
"L  c #CDD3D6",
"P  c #C2D4DD",
"I  c #C4D5DE",
"U  c #C5D6DF",
"Y  c #C8D4DA",
"T  c #CAD6DC",
"R  c #D2D8DB",
"E  c #D8D8D8",
"W  c gray85",
"Q  c #DADADA",
"!  c gray86",
"~  c gainsboro",
"^  c #DDDDDD",
"/  c gray87",
"(  c #DFDFDF",
")  c #C7D8E1",
"_  c #C1D9E5",
"`  c #C8D9E2",
"'  c #C9DAE3",
"]  c #D2DEE4",
"[  c #D1E2EB",
"{  c #D6E2E8",
"}  c #E1E1E1",
"|  c #E2E2E2",
" . c #E4E4E4",
".. c gray90",
"X. c #E6E6E6",
"o. c #E1E6E9",
"O. c #E4E9EC",
"+. c #E5EAED",
"@. c gray91",
"#. c #E9E9E9",
"$. c gray92",
"%. c #ECECEC",
"&. c #EEEEEE",
"*. c #EFEFEF",
"=. c #E0ECF2",
"-. c gray94",
";. c #F1F1F1",
":. c gray95",
">. c #F3F3F3",
",. c #F4F4F4",
"<. c gray96",
"1. c #F6F6F6",
"2. c gray97",
"3. c #F0F5F8",
"4. c #F8F8F8",
"5. c #F9F9F9",
"6. c gray98",
"7. c #FBFBFB",
"8. c gray99",
"9. c #FDFDFD",
"0. c #FEFEFE",
"q. c gray100",
"w. c None",
/* pixels */
"w.w.w.w.w.w.w.                                                                                                    w.w.w.w.w.w.w.",
"w.w.w.w.w.                                                                                                            w.w.w.w.w.",
"w.w.w.                                                                                                                    w.w.w.",
"w.w.                                                                                                                        w.w.",
"w.w.                                                        + A A +                                                         w.w.",
"w.                                                      X h *.*.*.*.h X                                                       w.",
"w.                                                    e o.*.*.*.*.*.*.o.e                                                     w.",
"                                                  - I *.*.*.*.*.*.*.*.*.*.I -                                                   ",
"                                              + M *.*.*.*.*.*.*.*.*.*.*.*.*.*.M +                                               ",
"                                          X p *.*.*.*.*.*.*.*.*.*.*.*.*.*.*.*.*.*.p X                                           ",
"                                        6 o.*.*.*.*.*.*.*.*.*.*.*.*.*.*.*.*.*.*.*.*.o.6                                         ",
"                                    - A *.*.*.*.*.*.*.*.*.*.*.,.-.*.*.*.*.*.*.*.*.-.-.-.>                                       ",
"                                + x *.*.*.*.*.*.*.*.*.*.-.-.j 5 5 j -.*.*.*.*.*.*.-.C q 1                                       ",
"                            X p o.*.*.*.*.*.*.*.*.*.*.-.F @   1 1   @ H *.*.*.-.` >   1 1                                       ",
"                          2 ] *.*.*.*.*.*.*.*.*.*.*.{ 5       1 1       > { O.y       1 1         X -                           ",
"                      $ A *.*.*.*.*.*.*.*.*.*.*.O.s           1 1         1 g         1 1       e o.*.A $                       ",
"                  o x *.*.*.*.*.*.*.*.*.*.*.-.n o             1 1         1 g         1 1   - I *.*.*.*.*.x X                   ",
"                p o.*.*.*.*.*.*.*.*.*.*.-.F *                 1 1         1 g         1 0 M *.*.*.*.*.*.*.*.o.p                 ",
"              r X.-.*.*.*.*.*.*.*.*.*.*.) X                 q V V q       1 g       > ` *.*.*.*.*.*.*.*.*.*.-.,.d               ",
"              w E E @.*.*.*.*.*.*.*.*.*.*.o.6           * V 5     5 V *   1 g   @ n -.*.*.*.*.*.*.*.*.*.-.-.q.q.g               ",
"              w E E E  .@.*.*.*.*.*.*.*.*.*.*.A -   o c g o           g c 5 c s O.*.*.*.*.*.*.*.*.*.-.-.7.q.q.q.g               ",
"              w E E E E E  .*.-.*.*.*.*.*.*.*.*.*.B S @                 @ H ,.-.*.*.*.*.*.*.*.*.*.-.,.q.q.q.q.q.g               ",
"              w E E E E E E E @.*.*.*.*.*.*.*.*.*.*.o.p X             X p o.*.*.*.*.*.*.*.*.*.*.,.q.q.q.q.q.q.q.g               ",
"              w E E E E E E E E ( @.*.*.*.*.*.*.*.*.*.*.] 2         2 ] *.*.*.*.*.*.*.*.-.-.-.7.q.q.q.q.q.q.q.q.g               ",
"              w E E E E E E E E E E  .@.*.*.*.*.*.*.*.*.*.*.A $ $ A *.*.*.*.*.*.*.*.*.-.-.7.q.q.q.q.q.q.q.q.q.q.g               ",
"              , K E E E E E E E E E E E  .*.*.*.*.*.*.*.*.*.*.*.*.*.*.*.*.*.*.*.-.-.-.,.q.q.q.q.q.q.q.q.q.q.q.q.g               ",
"                . a E E E E E E E E E E E ( X.*.*.*.*.*.*.*.*.*.*.*.*.*.*.*.*.*.*.-.q.q.q.q.q.q.q.q.q.q.q.q.q.q.g               ",
"                    # v E E E E E E E E E E E ( @.*.*.*.*.*.*.*.*.*.*.*.*.-.-.-.7.q.q.q.q.q.q.q.q.q.q.q.q.q.q.q.g               ",
"                        , L E E E E E E E E E E E  .*.*.*.*.*.*.*.*.*.*.*.-.7.q.q.q.q.q.q.q.q.q.q.q.q.q.q.q.q.q.g               ",
"                      @ V d N E E E E E E E E E E E E  .*.*.-.-.*.*.*.*.,.q.q.q.q.q.q.q.q.q.q.q.3.g q.q.q.q.q.q.g               ",
"                  o g c o     2 T E E E E E E E E E E E E @.-.-.*.*.-.q.q.q.q.q.q.q.q.q.q.q.q.V @   q.q.q.q.q.q.g               ",
"                q V @           o i R E E E E E E E E E E E ( @.-.7.q.q.q.q.q.q.q.q.q.q.q._ 1       q.q.q.q.q.q.g               ",
"              8 U o                 g -.K E E E E E E E E E E E 7.q.q.q.q.q.q.q.q.q.q.3.V           q.q.q.q.q.q.g               ",
"              w E R i           1 _ c c . w E E E E E E E E E E ,.q.q.q.q.q.q.q.q.q.g o g           q.q.q.q.q.q.g               ",
"              w E E E I ;   @ V _ *   g     O k E E E E E E E E ,.q.q.q.q.q.q.q.S @     g           q.q.q.q.q.q.g               ",
"              w E E E E ! P [ 5       d         % m E E E E E E ,.q.q.q.q.q.[ 1         g           q.q.q.q.q.q.g               ",
"              w E E E E E |           g             8 L E E E E ,.q.q.q.3.u             g           q.q.q.q.q.q.g               ",
"              w E E E E E |           g               . t E E E ,.q.q.c o               g           q.q.q.q.q.q.g               ",
"              w E E E E E }           g                   O v E ,._ @                   g           q.q.q.q.q.q.g               ",
"              r E E E E E }         5 =.q                     % -                     q =.5         q.q.q.q.q.q.g               ",
"              w E E E E E  .    * _ V @ 1 D 1                                     1 D 1 o V _ *     q.q.q.q.q.q.g               ",
"              w E E E E E  .o V _ 1         u V @                             @ V u         1 _ V o q.q.q.q.q.q.g               ",
"              w E E E E E ( [ 0               o c g o                     o g g o               q [ q.q.q.q.q.q.g               ",
"              w E E E E E E ( t o                 @ V q                 q V @                 o g q.q.q.q.q.q.q.g               ",
"              w E E E E E E E E J 9                   5 V 1         1 V 5                   q =.q.q.q.q.q.q.q.q.g               ",
"              w E E E E E E E E E E N -                   g c o o c g                   1 _ q.q.q.q.q.q.q.q.q.q.g               ",
"              < E E E E E E E E E E E ( z @                 o V V o                 @ V q.q.q.q.q.q.q.q.q.q.q.q.q               ",
"                O v E E E E E E E E E E E R i                 1 1                 g 3.q.q.q.q.q.q.q.q.q.q.q._ @                 ",
"                    % Z E E E E E E E E E E E T 2             1 1             5 =.q.q.q.q.q.q.q.q.q.q.q.=.1                     ",
"                        w K E E E E E E E E E E E N *         1 1         * _ q.q.q.q.q.q.q.q.q.q.q.3.g                         ",
"                          . a E E E E E E E E E E E ( z o     1 1     o V q.q.q.q.q.q.q.q.q.q.q.q.V o                           ",
"                              # v E E E E E E E E E E E R e   1 1   u 3.q.q.q.q.q.q.q.q.q.q.q._ *                               ",
"                                  < Z E E E E E E E E E E E T d g =.q.q.q.q.q.q.q.q.q.q.q.=.q                                   ",
"                                    . w K E E E E E E E E E E E 7.q.q.q.q.q.q.q.q.q.q.3.g o                                     ",
"                                        O a E E E E E E E E E E -.q.q.q.q.q.q.q.q.q.V @                                         ",
"                                            % m E E E E E E E E ,.q.q.q.q.q.q.q.[ 1                                             ",
"                                                < K E E E E E E ,.q.q.q.q.q.3.q                                                 ",
"w.                                                . w E E E E E ,.q.q.q.q.g o                                                 w.",
"w.                                                    O k E E E ,.q.q.S @                                                     w.",
"w.w.                                                      % Z E ,.=.1                                                       w.w.",
"w.w.                                                          7 e                                                           w.w.",
"w.w.w.                                                                                                                    w.w.w.",
"w.w.w.w.w.                                                                                                            w.w.w.w.w.",
"w.w.w.w.w.w.w.                                                                                                    w.w.w.w.w.w.w."
};
