/* XPM */
static char *_70661c6cad745cfcdbdb865a02b3c02[] = {
/* columns rows colors chars-per-pixel */
"16 16 75 1 ",
"  c #086696",
". c #156D9A",
"X c #166F9C",
"o c #17709D",
"O c #22749E",
"+ c #2577A1",
"@ c #2779A3",
"# c #3380A7",
"$ c #3481A8",
"% c #3683AA",
"& c #4288AC",
"* c #4389AD",
"= c #498AAB",
"- c #5691AF",
"; c #468CB0",
": c #5091B2",
"> c #5293B4",
", c #5596B7",
"< c #5F99B7",
"1 c #609BB9",
"2 c #659FBD",
"3 c #709FB7",
"4 c #7FA9BE",
"5 c #73A8C3",
"6 c #74A9C4",
"7 c #7AA9C1",
"8 c #7DACC4",
"9 c #7FAEC6",
"0 c #8AADBF",
"q c #89B2C7",
"w c #8FB2C4",
"e c #84B3CB",
"r c #8AB3C8",
"t c #94B7C9",
"y c #99BDCF",
"u c #92BBD0",
"i c #93BCD1",
"p c #A4BCC8",
"a c #A6BECA",
"s c #A9C0CC",
"d c #A7C4D3",
"f c #ABC8D7",
"g c #A2C6D8",
"h c #AFCDDC",
"j c #BECAD0",
"k c #B2CFDE",
"l c #CBD1D4",
"z c #C4D5DE",
"x c #C5D6DF",
"c c #CDD8DE",
"v c #D2D8DB",
"b c #D8D8D8",
"n c gray85",
"m c #DADADA",
"M c #DDDDDD",
"N c gray87",
"B c #C1D9E5",
"V c #E4E4E4",
"C c #E6E6E6",
"Z c #E1E6E9",
"A c #E2E7EA",
"S c #ECECEC",
"D c #EEEEEE",
"F c #EFEFEF",
"G c #E0ECF2",
"H c gray94",
"J c #F1F1F1",
"K c #F3F3F3",
"L c gray96",
"P c #F0F5F8",
"I c gray98",
"U c gray99",
"Y c #FEFEFE",
"T c gray100",
"R c None",
/* pixels */
"RRRRRRRRRRRRRRRR",
"R      X#       ",
"      1ASd@     ",
"    &xFSJJS>    ",
"  +dSJx*id*ir<  ",
"  vSSA$66k8JJL5 ",
"  bbCSJy>ASJTTe ",
"  3lbbCJJJITTTe ",
"  91sbbNJTTGiTe ",
"  bw67pbSPe,;Te ",
"  bp;e :t@@i,Te ",
"  bNqoe;X5,@PTe ",
"  pbbaO$k 6PTP, ",
"   =jbb0hGTTgo  ",
"    .3lbSTB;    ",
"      O0c2      "
};
